<?xml version="1.0" encoding="UTF-8"?>
<svg id="Laag_1" data-name="Laag 1" xmlns="http://www.w3.org/2000/svg" viewBox="0 0 135.5 146.5">
  <defs>
    <style>
      .cls-1 {
        fill: #3eb285;
      }

      .cls-2 {
        fill: #fff;
      }

      .cls-3 {
        fill: none;
        stroke: #155a84;
        stroke-linecap: round;
        stroke-miterlimit: 10;
        stroke-width: 8px;
      }

      .cls-4 {
        fill: #155a84;
      }
    </style>
  </defs>
  <g>
    <polygon class="cls-2" points="11.29 4.46 85.24 5.13 118.18 39.61 114.96 140.91 7.29 140.91 7.29 7.26 11.29 4.46"/>
    <path class="cls-4" d="M122.3,115.47v19.03s0,.02,0,.03c-.83,5.81-6.71,11.25-12.97,11.96,0,0-.01,0-.02,0l-96.3.02s-.01,0-.02,0c-7.15-.85-12.7-6.84-12.99-14.37V14.62C.47,6.81,6.34.65,14.18.03c0,0,.01,0,.02,0,22.1,0,44.71-.06,67.16,0,2.3,0,4.72.71,6.39,2.4,8.01,8.92,25.54,26.69,32.06,33.26,1.61,1.62,2.5,3.8,2.5,6.08v31.06M114.71,65.72v-21.97c0-.08-.06-.14-.14-.14l-24.47-.23c-6.3-.06-11.38-5.19-11.37-11.49l.02-23.7c0-.08-.06-.14-.14-.14l-60.5-.77c-4.81-.06-8.74,3.81-8.76,8.61l-.46,114.06c-.02,4.69,3.76,8.52,8.46,8.54l88.74.65c4.75.03,8.64-3.77,8.71-8.52l.12-8.2s.02-.07.04-.1M86.45,31.11c.47.72,1.01,1.61,1.59,2.21s2.79,2.01,2.81,2.19c0,.03-.38.19-.4.39.4.03.8,0,1.2,0,.13,0,.27,0,.4,0,.41.67,1.08.75,1.79.81,3.72.3,9.89.29,13.61,0,.69-.05,1.8-.04,2.15-.76.02-.04.03-.08,0-.12-.29-.61-4.11-4.37-4.78-5.14-.12-.14-.28-.26-.4-.4s-.28-.25-.4-.4c-.23-.3,0-1.29-1.14-1.2-.04,0-.08,0-.11-.03-1.3-1.15-2.34-2.35-3.55-3.56-.13-.13-.27-.27-.4-.4-.41-.4-.8-.79-1.2-1.2-.13-.13-.27-.27-.4-.4-.27-.27-.53-.53-.8-.8-.13-.13-.27-.27-.4-.4-1.13-1.13-2.15-1.82-3.2-3.2-.06-.08.13-.54-.06-.74s-.66,0-.74-.06c-1.09-.83-1.52-1.54-2.36-2.36-.02-.02-.04-.05-.04-.08-.05-.72-.96-1.63-1.6-1.55-.13-.13-.26-.27-.4-.4-.27-.25-.37-.47-.8-.8-.2-.15-.55-.26-.8-.4-.1-.05-.31-.96-.81-.19l.38,17.6c-.24.94.67,1.14.82,1.37Z"/>
    <g>
      <path class="cls-1" d="M100.12,128.41c-1.53,0-4.39-.53-6.34-4.09l-.39-.72-.05-.88-.68-13.54c-.43-.01-.87-.02-1.33-.02-4.62,0-9.62.56-12.73,1.44-4.61,1.29-9,4.24-11.45,7.68l-.06.08c-1.2,1.69-3.12,2.69-5.23,2.69-3.47,0-6.32-2.71-6.5-6.16-.26-4.89,0-8.68.76-11.25,4.09-13.9,15.96-23.88,29.54-24.83,1.33-.09,4.51-.23,6.97-.33l.33-13.01.34-.74c1.3-2.71,4-4.39,7.06-4.39,1.64,0,3.24.49,4.61,1.41l.32.21.3.31,23.95,25.78c3.29,3.54,3.3,9.1.02,12.65-6.63,7.18-18.61,20.1-24.4,25.96l-.42.43-.58.29c-1.39.68-2.75,1.03-4.03,1.03Z"/>
      <path class="cls-2" d="M100.35,63.84c.92,0,1.85.27,2.67.82.01,0,.02.02.03.03l23.92,25.75c2.07,2.23,2.08,5.66.02,7.89-6.15,6.66-18.48,19.96-24.32,25.87-.01.01-.03.02-.04.03-.91.45-1.75.68-2.5.68-1.34,0-2.43-.73-3.26-2.27-.01-.02-.02-.04-.02-.07l-.8-15.95c-.02-.13.01-.27,0-.4-.03-.39-.34-.41-.66-.41-.04,0-.08,0-.12,0-.07,0-.14,0-.2,0-1.08-.1-2.35-.15-3.73-.15-4.39,0-9.87.5-13.67,1.57-5.09,1.43-10.28,4.71-13.36,9.02,0,.01-.02.03-.03.04-.62.87-1.52,1.27-2.41,1.27-1.47,0-2.91-1.08-3.01-2.84-.19-3.57-.14-7.5.62-10.08,3.51-11.94,13.82-21.45,26.42-22.33,2.06-.14,8.97-.41,10.01-.45.08,0,.13-.06.14-.14l.4-15.42s0-.05.02-.07c.76-1.58,2.3-2.4,3.9-2.4M100.35,56.84h0c-4.42,0-8.33,2.44-10.21,6.37-.44.92-.67,1.9-.7,2.91l-.23,9c-1.56.07-2.99.14-3.8.2-15.03,1.05-28.15,12.03-32.65,27.34-.88,3-1.17,7.06-.9,12.42.28,5.32,4.67,9.48,10,9.48,3.26,0,6.22-1.54,8.12-4.22,2-2.81,5.75-5.3,9.57-6.37,2.35-.66,6.1-1.14,9.78-1.27l.51,10.23c.05,1.07.35,2.13.87,3.07,2.06,3.76,5.48,5.91,9.41,5.91,1.81,0,3.69-.47,5.57-1.39.73-.36,1.38-.83,1.95-1.4,5.83-5.91,17.84-18.85,24.48-26.04,4.51-4.89,4.5-12.53-.03-17.41l-23.92-25.75-.55-.59-.7-.48c-1.96-1.31-4.23-2.01-6.57-2.01h0Z"/>
    </g>
    <line class="cls-3" x1="24.41" y1="97.86" x2="49.12" y2="98.09"/>
    <line class="cls-3" x1="24.41" y1="78.28" x2="57.6" y2="78.93"/>
    <line class="cls-3" x1="24.41" y1="58.76" x2="74.64" y2="59.23"/>
    <line class="cls-3" x1="24.41" y1="39.61" x2="61.15" y2="39.96"/>
  </g>
  <path class="cls-1" d="M85.24,10.9v20.45c0,3.12,2.46,5.68,5.58,5.81l21.51.88c.13,0,.2-.15.11-.25l-26.95-26.99c-.09-.09-.25-.03-.25.1Z"/>
</svg>