<?xml version="1.0" encoding="UTF-8"?>
<svg id="Laag_1" data-name="Laag 1" xmlns="http://www.w3.org/2000/svg" viewBox="0 0 341.32 146.5">
  <defs>
    <style>
      .cls-1 {
        letter-spacing: -.02em;
      }

      .cls-2 {
        fill: #125782;
        font-family: MinionConceptRoman-Bold, 'Minion Variable Concept';
        font-size: 51px;
        font-variation-settings: 'wght' 700, 'opsz' 11;
        font-weight: 700;
      }

      .cls-3 {
        fill: #3eb285;
      }

      .cls-4 {
        letter-spacing: .02em;
      }

      .cls-5 {
        fill: none;
        stroke: #155a84;
        stroke-linecap: round;
        stroke-miterlimit: 10;
        stroke-width: 8px;
      }

      .cls-6 {
        letter-spacing: 0em;
      }

      .cls-7 {
        letter-spacing: 0em;
      }

      .cls-8 {
        letter-spacing: 0em;
      }

      .cls-9 {
        fill: #155a84;
      }

      .cls-10 {
        letter-spacing: 0em;
      }
    </style>
  </defs>
  <g>
    <path class="cls-9" d="M114.79,130.59l.12-8.2s.02-.07.04-.1l7.1-6.92c.09-.09.24-.02.24.1v19.03s0,.02,0,.03c-.83,5.81-6.71,11.25-12.97,11.96,0,0-.01,0-.02,0l-96.3.02s-.01,0-.02,0c-7.15-.85-12.7-6.84-12.99-14.37V14.62C.47,6.81,6.34.65,14.18.03c0,0,.01,0,.02,0,22.1,0,44.71-.06,67.16,0,2.3,0,4.72.71,6.39,2.4,8.01,8.92,25.54,26.69,32.06,33.26,1.61,1.62,2.5,3.8,2.5,6.08v31.06c0,.13-.15.19-.24.1l-7.3-7.11s-.04-.06-.04-.1v-21.97c0-.08-.06-.14-.14-.14l-24.47-.23c-6.3-.06-11.38-5.19-11.37-11.49l.02-23.7c0-.08-.06-.14-.14-.14l-60.5-.77c-4.81-.06-8.74,3.81-8.76,8.61l-.46,114.06c-.02,4.69,3.76,8.52,8.46,8.54l88.74.65c4.75.03,8.64-3.77,8.71-8.52ZM86.45,31.11c.47.72,1.01,1.61,1.59,2.21s2.79,2.01,2.81,2.19c0,.03-.38.19-.4.39.4.03.8,0,1.2,0,.13,0,.27,0,.4,0,.41.67,1.08.75,1.79.81,3.72.3,9.89.29,13.61,0,.69-.05,1.8-.04,2.15-.76.02-.04.03-.08,0-.12-.29-.61-4.11-4.37-4.78-5.14-.12-.14-.28-.26-.4-.4s-.28-.25-.4-.4c-.23-.3,0-1.29-1.14-1.2-.04,0-.08,0-.11-.03-1.3-1.15-2.34-2.35-3.55-3.56-.13-.13-.27-.27-.4-.4-.41-.4-.8-.79-1.2-1.2-.13-.13-.27-.27-.4-.4-.27-.27-.53-.53-.8-.8-.13-.13-.27-.27-.4-.4-1.13-1.13-2.15-1.82-3.2-3.2-.06-.08.13-.54-.06-.74s-.66,0-.74-.06c-1.09-.83-1.52-1.54-2.36-2.36-.02-.02-.04-.05-.04-.08-.05-.72-.96-1.63-1.6-1.55-.13-.13-.26-.27-.4-.4-.27-.25-.37-.47-.8-.8-.2-.15-.55-.26-.8-.4-.1-.05-.31-.96-.81-.19l.38,17.6c-.24.94.67,1.14.82,1.37Z"/>
    <path class="cls-3" d="M96.85,122.65s-.02-.04-.02-.07l-.8-15.95c-.02-.13.01-.27,0-.4-.04-.52-.59-.38-.97-.42-4.52-.4-12.4.02-17.4,1.42s-10.28,4.71-13.36,9.02c0,.01-.02.03-.03.04-1.64,2.32-5.27,1.26-5.42-1.58-.19-3.57-.14-7.5.62-10.08,3.51-11.94,13.82-21.45,26.42-22.33,2.06-.14,8.97-.41,10.01-.45.08,0,.13-.06.14-.14l.4-15.42s0-.05.02-.07c1.19-2.48,4.32-3.08,6.56-1.58.01,0,.02.02.03.03l23.92,25.75c2.07,2.23,2.08,5.66.02,7.89-6.15,6.66-18.48,19.96-24.32,25.87-.01.01-.03.02-.04.03-2.54,1.24-4.45.81-5.76-1.59Z"/>
    <text class="cls-2" transform="translate(144.44 46.51)"><tspan class="cls-4" x="0" y="0">A</tspan><tspan class="cls-6" x="32.59" y="0">c</tspan><tspan class="cls-1" x="55.08" y="0">t</tspan><tspan x="71.4" y="0">e</tspan><tspan class="cls-8" x="0" y="44">d</tspan><tspan x="28.61" y="44">e</tspan><tspan x="0" y="88">Pr</tspan><tspan class="cls-8" x="52.02" y="88">é</tspan><tspan class="cls-7" x="75.33" y="88">s</tspan><tspan class="cls-8" x="95.72" y="88">en</tspan><tspan class="cls-10" x="148.35" y="88">c</tspan><tspan x="170.59" y="88">e</tspan></text>
    <line class="cls-5" x1="24.41" y1="97.86" x2="49.12" y2="98.09"/>
    <line class="cls-5" x1="24.41" y1="78.28" x2="57.6" y2="78.93"/>
    <line class="cls-5" x1="24.41" y1="58.76" x2="74.64" y2="59.23"/>
    <line class="cls-5" x1="24.41" y1="39.61" x2="61.15" y2="39.96"/>
  </g>
  <path class="cls-3" d="M85.24,10.9v20.45c0,3.12,2.46,5.68,5.58,5.81l21.51.88c.13,0,.2-.15.11-.25l-26.95-26.99c-.09-.09-.25-.03-.25.1Z"/>
</svg>